MutatorSansInstance_1000-700.ufo
<glyph name="comma" format="2">
  <advance width="292"/>
  <unicode hex="002C"/>
  <outline>
    <contour>
      <point x="241" y="0" type="line"/>
      <point x="241" y="300" type="line"/>
      <point x="51" y="300" type="line"/>
      <point x="51" y="0" type="line"/>
      <point x="130" y="-16" type="line"/>
      <point x="122" y="12" type="line"/>
      <point x="100" y="-143" type="line"/>
      <point x="172" y="-145" type="line"/>
    </contour>
  </outline>
</glyph>
<glyph name="period" format="2">
  <advance width="292"/>
  <unicode hex="002E"/>
  <outline>
    <contour>
      <point x="51" y="0" type="line"/>
      <point x="241" y="0" type="line"/>
      <point x="241" y="300" type="line"/>
      <point x="51" y="300" type="line"/>
    </contour>
  </outline>
</glyph>
<glyph name="A" format="2">
  <advance width="1125"/>
  <unicode hex="0041"/>
  <outline>
    <contour>
      <point x="17" y="0" type="line"/>
      <point x="320" y="0" type="line"/>
      <point x="548" y="800" type="line"/>
      <point x="289" y="800" type="line"/>
    </contour>
    <contour>
      <point x="180" y="120" type="line"/>
      <point x="832" y="120" type="line"/>
      <point x="832" y="337" type="line"/>
      <point x="180" y="337" type="line"/>
    </contour>
    <contour>
      <point x="677" y="0" type="line"/>
      <point x="1108" y="0" type="line"/>
      <point x="835" y="800" type="line"/>
      <point x="424" y="800" type="line"/>
    </contour>
    <contour>
      <point x="348" y="540" type="line"/>
      <point x="723" y="540" type="line"/>
      <point x="723" y="800" type="line"/>
      <point x="348" y="800" type="line"/>
    </contour>
  </outline>
</glyph>
<glyph name="B" format="2">
  <advance width="1123"/>
  <unicode hex="0042"/>
  <outline>
    <contour>
      <point x="51" y="0" type="line"/>
      <point x="438" y="0" type="line"/>
      <point x="438" y="801" type="line"/>
      <point x="51" y="801" type="line"/>
    </contour>
    <contour>
      <point x="399" y="340" type="line"/>
      <point x="651" y="340" type="line" smooth="yes"/>
      <point x="689" y="340"/>
      <point x="719" y="333"/>
      <point x="719" y="288" type="curve" smooth="yes"/>
      <point x="719" y="248"/>
      <point x="689" y="238"/>
      <point x="651" y="238" type="curve" smooth="yes"/>
      <point x="399" y="238" type="line"/>
      <point x="399" y="0" type="line"/>
      <point x="788" y="0" type="line" smooth="yes"/>
      <point x="1043" y="0"/>
      <point x="1106" y="94"/>
      <point x="1106" y="230" type="curve" smooth="yes"/>
      <point x="1106" y="356"/>
      <point x="1037" y="417"/>
      <point x="943" y="434" type="curve"/>
      <point x="919" y="377" type="line"/>
      <point x="996" y="392"/>
      <point x="1082" y="444"/>
      <point x="1082" y="563" type="curve" smooth="yes"/>
      <point x="1082" y="711"/>
      <point x="999" y="800"/>
      <point x="743" y="800" type="curve" smooth="yes"/>
      <point x="399" y="800" type="line"/>
      <point x="399" y="574" type="line"/>
      <point x="624" y="574" type="line" smooth="yes"/>
      <point x="668" y="574"/>
      <point x="698" y="565"/>
      <point x="698" y="526" type="curve" smooth="yes"/>
      <point x="698" y="476"/>
      <point x="668" y="477"/>
      <point x="624" y="477" type="curve" smooth="yes"/>
      <point x="399" y="477" type="line"/>
    </contour>
  </outline>
</glyph>
<glyph name="C" format="2">
  <advance width="1208"/>
  <unicode hex="0043"/>
  <outline>
    <contour>
      <point x="788" y="367" type="line"/>
      <point x="776" y="285"/>
      <point x="726" y="254"/>
      <point x="644" y="254" type="curve" smooth="yes"/>
      <point x="576" y="254" type="line" smooth="yes"/>
      <point x="485" y="254"/>
      <point x="433" y="298"/>
      <point x="433" y="403" type="curve" smooth="yes"/>
      <point x="433" y="504"/>
      <point x="485" y="546"/>
      <point x="576" y="546" type="curve" smooth="yes"/>
      <point x="644" y="546" type="line" smooth="yes"/>
      <point x="725" y="546"/>
      <point x="775" y="517"/>
      <point x="788" y="440" type="curve"/>
      <point x="1174" y="481" type="line"/>
      <point x="1139" y="704"/>
      <point x="956" y="810"/>
      <point x="683" y="810" type="curve" smooth="yes"/>
      <point x="536" y="810" type="line" smooth="yes"/>
      <point x="227" y="810"/>
      <point x="34" y="679"/>
      <point x="34" y="403" type="curve" smooth="yes"/>
      <point x="34" y="124"/>
      <point x="227" y="-10"/>
      <point x="536" y="-10" type="curve" smooth="yes"/>
      <point x="683" y="-10" type="line" smooth="yes"/>
      <point x="958" y="-10"/>
      <point x="1141" y="100"/>
      <point x="1174" y="328" type="curve"/>
    </contour>
  </outline>
</glyph>
<glyph name="D" format="2">
  <advance width="1084"/>
  <unicode hex="0044"/>
  <outline>
    <contour>
      <point x="51" y="0" type="line"/>
      <point x="432" y="0" type="line"/>
      <point x="432" y="800" type="line"/>
      <point x="51" y="800" type="line"/>
    </contour>
    <contour>
      <point x="380" y="546" type="line"/>
      <point x="508" y="546" type="line" smooth="yes"/>
      <point x="599" y="546"/>
      <point x="651" y="504"/>
      <point x="651" y="403" type="curve" smooth="yes"/>
      <point x="651" y="298"/>
      <point x="599" y="254"/>
      <point x="508" y="254" type="curve" smooth="yes"/>
      <point x="378" y="254" type="line"/>
      <point x="378" y="0" type="line"/>
      <point x="547" y="0" type="line" smooth="yes"/>
      <point x="855" y="0"/>
      <point x="1050" y="126"/>
      <point x="1050" y="403" type="curve" smooth="yes"/>
      <point x="1050" y="677"/>
      <point x="855" y="800"/>
      <point x="547" y="800" type="curve" smooth="yes"/>
      <point x="380" y="800" type="line"/>
    </contour>
  </outline>
</glyph>
<glyph name="E" format="2">
  <advance width="1027"/>
  <unicode hex="0045"/>
  <anchor x="501" y="841" name="top"/>
  <outline>
    <contour>
      <point x="54" y="0" type="line"/>
      <point x="435" y="0" type="line"/>
      <point x="435" y="800" type="line"/>
      <point x="54" y="800" type="line"/>
    </contour>
    <contour>
      <point x="144" y="530" type="line"/>
      <point x="976" y="530" type="line"/>
      <point x="976" y="800" type="line"/>
      <point x="144" y="800" type="line"/>
    </contour>
    <contour>
      <point x="144" y="0" type="line"/>
      <point x="976" y="0" type="line"/>
      <point x="976" y="270" type="line"/>
      <point x="144" y="270" type="line"/>
    </contour>
    <contour>
      <point x="144" y="315" type="line"/>
      <point x="816" y="315" type="line"/>
      <point x="816" y="485" type="line"/>
      <point x="144" y="485" type="line"/>
    </contour>
  </outline>
</glyph>
<glyph name="F" format="2">
  <advance width="1015"/>
  <unicode hex="0046"/>
  <outline>
    <contour>
      <point x="51" y="0" type="line"/>
      <point x="441" y="0" type="line"/>
      <point x="441" y="800" type="line"/>
      <point x="51" y="800" type="line"/>
    </contour>
    <contour>
      <point x="144" y="536" type="line"/>
      <point x="964" y="536" type="line"/>
      <point x="964" y="800" type="line"/>
      <point x="144" y="800" type="line"/>
    </contour>
    <contour>
      <point x="144" y="247" type="line"/>
      <point x="880" y="247" type="line"/>
      <point x="880" y="471" type="line"/>
      <point x="144" y="471" type="line"/>
    </contour>
  </outline>
</glyph>
<glyph name="G" format="2">
  <advance width="1236"/>
  <unicode hex="0047"/>
  <outline>
    <contour>
      <point x="574" y="312" type="line"/>
      <point x="811" y="312" type="line"/>
      <point x="811" y="216" type="line"/>
      <point x="981" y="0" type="line"/>
      <point x="1185" y="0" type="line"/>
      <point x="1185" y="417" type="line"/>
      <point x="574" y="417" type="line"/>
    </contour>
    <contour>
      <point x="794" y="374" type="line"/>
      <point x="782" y="292"/>
      <point x="730" y="254"/>
      <point x="644" y="254" type="curve" smooth="yes"/>
      <point x="576" y="254" type="line" smooth="yes"/>
      <point x="485" y="254"/>
      <point x="433" y="298"/>
      <point x="433" y="403" type="curve" smooth="yes"/>
      <point x="433" y="504"/>
      <point x="486" y="546"/>
      <point x="581" y="546" type="curve" smooth="yes"/>
      <point x="649" y="546" type="line" smooth="yes"/>
      <point x="731" y="546"/>
      <point x="781" y="517"/>
      <point x="794" y="440" type="curve"/>
      <point x="1171" y="481" type="line"/>
      <point x="1136" y="704"/>
      <point x="955" y="810"/>
      <point x="683" y="810" type="curve" smooth="yes"/>
      <point x="536" y="810" type="line" smooth="yes"/>
      <point x="227" y="810"/>
      <point x="34" y="679"/>
      <point x="34" y="403" type="curve" smooth="yes"/>
      <point x="34" y="124"/>
      <point x="227" y="-10"/>
      <point x="536" y="-10" type="curve" smooth="yes"/>
      <point x="557" y="-10" type="line" smooth="yes"/>
      <point x="830" y="-10"/>
      <point x="1012" y="107"/>
      <point x="1045" y="335" type="curve"/>
    </contour>
  </outline>
</glyph>
<glyph name="H" format="2">
  <advance width="1177"/>
  <unicode hex="0048"/>
  <outline>
    <contour>
      <point x="51" y="0" type="line"/>
      <point x="441" y="0" type="line"/>
      <point x="441" y="800" type="line"/>
      <point x="51" y="800" type="line"/>
    </contour>
    <contour>
      <point x="203" y="267" type="line"/>
      <point x="974" y="267" type="line"/>
      <point x="974" y="527" type="line"/>
      <point x="203" y="527" type="line"/>
    </contour>
    <contour>
      <point x="736" y="0" type="line"/>
      <point x="1126" y="0" type="line"/>
      <point x="1126" y="800" type="line"/>
      <point x="736" y="800" type="line"/>
    </contour>
  </outline>
</glyph>
<glyph name="I" format="2">
  <advance width="882"/>
  <unicode hex="0049"/>
  <outline>
    <contour>
      <point x="246" y="0" type="line"/>
      <point x="636" y="0" type="line"/>
      <point x="636" y="800" type="line"/>
      <point x="246" y="800" type="line"/>
    </contour>
    <contour>
      <point x="51" y="527" type="line"/>
      <point x="831" y="527" type="line"/>
      <point x="831" y="800" type="line"/>
      <point x="51" y="800" type="line"/>
    </contour>
    <contour>
      <point x="51" y="0" type="line"/>
      <point x="831" y="0" type="line"/>
      <point x="831" y="273" type="line"/>
      <point x="51" y="273" type="line"/>
    </contour>
  </outline>
</glyph>
<glyph name="J" format="2">
  <advance width="820"/>
  <unicode hex="004A"/>
  <outline>
    <contour>
      <point x="225" y="-10" type="curve" smooth="yes"/>
      <point x="560" y="-10"/>
      <point x="769" y="125"/>
      <point x="769" y="406" type="curve" smooth="yes"/>
      <point x="769" y="800" type="line"/>
      <point x="370" y="800" type="line"/>
      <point x="370" y="447" type="line" smooth="yes"/>
      <point x="370" y="330"/>
      <point x="313" y="281"/>
      <point x="215" y="281" type="curve" smooth="yes"/>
      <point x="189" y="281"/>
      <point x="145" y="283"/>
      <point x="97" y="291" type="curve"/>
      <point x="51" y="7" type="line"/>
      <point x="104" y="-5"/>
      <point x="162" y="-10"/>
    </contour>
  </outline>
</glyph>
<glyph name="K" format="2">
  <advance width="1168"/>
  <unicode hex="004B"/>
  <outline>
    <contour>
      <point x="51" y="0" type="line"/>
      <point x="441" y="0" type="line"/>
      <point x="441" y="800" type="line"/>
      <point x="51" y="800" type="line"/>
    </contour>
    <contour>
      <point x="324" y="312" type="line"/>
      <point x="450" y="312" type="line"/>
      <point x="666" y="0" type="line"/>
      <point x="1150" y="0" type="line"/>
      <point x="774" y="533" type="line"/>
      <point x="454" y="452" type="line"/>
      <point x="324" y="452" type="line"/>
    </contour>
    <contour>
      <point x="432" y="426" type="line"/>
      <point x="654" y="318" type="line"/>
      <point x="1138" y="800" type="line"/>
      <point x="701" y="800" type="line"/>
    </contour>
  </outline>
</glyph>
<glyph name="L" format="2">
  <advance width="914"/>
  <unicode hex="004C"/>
  <outline>
    <contour>
      <point x="51" y="0" type="line"/>
      <point x="441" y="0" type="line"/>
      <point x="441" y="800" type="line"/>
      <point x="51" y="800" type="line"/>
    </contour>
    <contour>
      <point x="144" y="0" type="line"/>
      <point x="894" y="0" type="line"/>
      <point x="894" y="271" type="line"/>
      <point x="144" y="271" type="line"/>
    </contour>
  </outline>
</glyph>
<glyph name="M" format="2">
  <advance width="1158"/>
  <unicode hex="004D"/>
  <outline>
    <contour>
      <point x="51" y="0" type="line"/>
      <point x="350" y="0" type="line"/>
      <point x="350" y="800" type="line"/>
      <point x="51" y="800" type="line"/>
    </contour>
    <contour>
      <point x="1107" y="0" type="line"/>
      <point x="1107" y="800" type="line"/>
      <point x="808" y="800" type="line"/>
      <point x="808" y="0" type="line"/>
    </contour>
    <contour>
      <point x="930" y="412" type="line"/>
      <point x="808" y="800" type="line"/>
      <point x="558" y="548" type="line"/>
      <point x="600" y="548" type="line"/>
      <point x="350" y="800" type="line"/>
      <point x="228" y="412" type="line"/>
      <point x="520" y="130" type="line"/>
      <point x="639" y="130" type="line"/>
    </contour>
  </outline>
</glyph>
<glyph name="N" format="2">
  <advance width="1160"/>
  <unicode hex="004E"/>
  <outline>
    <contour>
      <point x="51" y="0" type="line"/>
      <point x="350" y="0" type="line"/>
      <point x="350" y="800" type="line"/>
      <point x="51" y="800" type="line"/>
    </contour>
    <contour>
      <point x="215" y="474" type="line"/>
      <point x="809" y="0" type="line"/>
      <point x="944" y="326" type="line"/>
      <point x="350" y="800" type="line"/>
    </contour>
    <contour>
      <point x="810" y="0" type="line"/>
      <point x="1108" y="0" type="line"/>
      <point x="1108" y="800" type="line"/>
      <point x="810" y="800" type="line"/>
    </contour>
  </outline>
</glyph>
<glyph name="O" format="2">
  <advance width="1220"/>
  <unicode hex="004F"/>
  <outline>
    <contour>
      <point x="536" y="-10" type="curve" smooth="yes"/>
      <point x="683" y="-10" type="line" smooth="yes"/>
      <point x="992" y="-10"/>
      <point x="1186" y="124"/>
      <point x="1186" y="403" type="curve" smooth="yes"/>
      <point x="1186" y="679"/>
      <point x="992" y="810"/>
      <point x="683" y="810" type="curve" smooth="yes"/>
      <point x="536" y="810" type="line" smooth="yes"/>
      <point x="227" y="810"/>
      <point x="34" y="679"/>
      <point x="34" y="403" type="curve" smooth="yes"/>
      <point x="34" y="124"/>
      <point x="227" y="-10"/>
    </contour>
    <contour>
      <point x="576" y="254" type="line" smooth="yes"/>
      <point x="485" y="254"/>
      <point x="433" y="298"/>
      <point x="433" y="403" type="curve" smooth="yes"/>
      <point x="433" y="504"/>
      <point x="485" y="546"/>
      <point x="576" y="546" type="curve" smooth="yes"/>
      <point x="644" y="546" type="line" smooth="yes"/>
      <point x="735" y="546"/>
      <point x="788" y="504"/>
      <point x="788" y="403" type="curve" smooth="yes"/>
      <point x="788" y="298"/>
      <point x="735" y="254"/>
      <point x="644" y="254" type="curve" smooth="yes"/>
    </contour>
  </outline>
</glyph>
<glyph name="P" format="2">
  <advance width="1066"/>
  <unicode hex="0050"/>
  <outline>
    <contour>
      <point x="51" y="0" type="line"/>
      <point x="441" y="0" type="line"/>
      <point x="441" y="800" type="line"/>
      <point x="51" y="800" type="line"/>
    </contour>
    <contour>
      <point x="301" y="524" type="line"/>
      <point x="615" y="524" type="line" smooth="yes"/>
      <point x="668" y="524"/>
      <point x="692" y="511"/>
      <point x="692" y="465" type="curve" smooth="yes"/>
      <point x="692" y="411"/>
      <point x="668" y="403"/>
      <point x="615" y="403" type="curve" smooth="yes"/>
      <point x="301" y="403" type="line"/>
      <point x="301" y="126" type="line"/>
      <point x="598" y="126" type="line" smooth="yes"/>
      <point x="932" y="126"/>
      <point x="1046" y="236"/>
      <point x="1046" y="465" type="curve" smooth="yes"/>
      <point x="1046" y="690"/>
      <point x="932" y="800"/>
      <point x="600" y="800" type="curve" smooth="yes"/>
      <point x="301" y="800" type="line"/>
    </contour>
  </outline>
</glyph>
<glyph name="Q" format="2">
  <advance width="1220"/>
  <unicode hex="0051"/>
  <outline>
    <contour>
      <point x="515" y="-130" type="line"/>
      <point x="902" y="-130" type="line"/>
      <point x="771" y="170" type="line"/>
      <point x="392" y="170" type="line"/>
    </contour>
    <component base="O"/>
  </outline>
</glyph>
<glyph name="R" format="2">
  <advance width="1069"/>
  <unicode hex="0052"/>
  <outline>
    <contour>
      <point x="640" y="0" type="line"/>
      <point x="1038" y="0" type="line"/>
      <point x="993" y="121" type="line" smooth="yes"/>
      <point x="960" y="187"/>
      <point x="910" y="238"/>
      <point x="821" y="238" type="curve"/>
      <point x="558" y="238" type="line"/>
    </contour>
    <contour>
      <point x="51" y="0" type="line"/>
      <point x="441" y="0" type="line"/>
      <point x="441" y="800" type="line"/>
      <point x="51" y="800" type="line"/>
    </contour>
    <contour>
      <point x="301" y="524" type="line"/>
      <point x="618" y="524" type="line" smooth="yes"/>
      <point x="671" y="524"/>
      <point x="695" y="512"/>
      <point x="695" y="465" type="curve" smooth="yes"/>
      <point x="695" y="411"/>
      <point x="671" y="403"/>
      <point x="618" y="403" type="curve" smooth="yes"/>
      <point x="301" y="403" type="line"/>
      <point x="301" y="186" type="line"/>
      <point x="604" y="186" type="line" smooth="yes"/>
      <point x="932" y="186"/>
      <point x="1049" y="286"/>
      <point x="1049" y="495" type="curve" smooth="yes"/>
      <point x="1049" y="700"/>
      <point x="929" y="800"/>
      <point x="603" y="800" type="curve" smooth="yes"/>
      <point x="301" y="800" type="line"/>
    </contour>
  </outline>
</glyph>
<glyph name="S" format="2">
  <advance width="1070"/>
  <unicode hex="0053"/>
  <outline>
    <contour>
      <point x="1043" y="253" type="curve" smooth="yes"/>
      <point x="1043" y="462"/>
      <point x="923" y="522"/>
      <point x="640" y="531" type="curve" smooth="yes"/>
      <point x="481" y="536" type="line" smooth="yes"/>
      <point x="363" y="540"/>
      <point x="354" y="542"/>
      <point x="354" y="552" type="curve" smooth="yes"/>
      <point x="354" y="563"/>
      <point x="374" y="567"/>
      <point x="452" y="567" type="curve" smooth="yes"/>
      <point x="610" y="567" type="line" smooth="yes"/>
      <point x="739" y="567"/>
      <point x="866" y="558"/>
      <point x="960" y="548" type="curve"/>
      <point x="996" y="780" type="line"/>
      <point x="902" y="793"/>
      <point x="743" y="810"/>
      <point x="657" y="810" type="curve" smooth="yes"/>
      <point x="553" y="810" type="line" smooth="yes"/>
      <point x="179" y="810"/>
      <point x="31" y="722"/>
      <point x="31" y="529" type="curve" smooth="yes"/>
      <point x="31" y="343"/>
      <point x="172" y="278"/>
      <point x="436" y="269" type="curve" smooth="yes"/>
      <point x="586" y="264" type="line" smooth="yes"/>
      <point x="691" y="260"/>
      <point x="711" y="259"/>
      <point x="711" y="246" type="curve" smooth="yes"/>
      <point x="711" y="238"/>
      <point x="689" y="234"/>
      <point x="612" y="234" type="curve" smooth="yes"/>
      <point x="463" y="234" type="line" smooth="yes"/>
      <point x="313" y="234"/>
      <point x="174" y="242"/>
      <point x="66" y="255" type="curve"/>
      <point x="31" y="20" type="line"/>
      <point x="141" y="5"/>
      <point x="315" y="-10"/>
      <point x="417" y="-10" type="curve" smooth="yes"/>
      <point x="533" y="-10" type="line" smooth="yes"/>
      <point x="930" y="-10"/>
      <point x="1043" y="97"/>
    </contour>
  </outline>
</glyph>
<glyph name="T" format="2">
  <advance width="1068"/>
  <unicode hex="0054"/>
  <outline>
    <contour>
      <point x="339" y="0" type="line"/>
      <point x="729" y="0" type="line"/>
      <point x="729" y="800" type="line"/>
      <point x="339" y="800" type="line"/>
    </contour>
    <contour>
      <point x="20" y="508" type="line"/>
      <point x="1048" y="508" type="line"/>
      <point x="1048" y="800" type="line"/>
      <point x="20" y="800" type="line"/>
    </contour>
  </outline>
</glyph>
<glyph name="U" format="2">
  <advance width="1156"/>
  <unicode hex="0055"/>
  <outline>
    <contour>
      <point x="577" y="-10" type="curve" smooth="yes"/>
      <point x="899" y="-10"/>
      <point x="1084" y="125"/>
      <point x="1084" y="406" type="curve" smooth="yes"/>
      <point x="1084" y="800" type="line"/>
      <point x="686" y="800" type="line"/>
      <point x="686" y="391" type="line" smooth="yes"/>
      <point x="686" y="309"/>
      <point x="646" y="275"/>
      <point x="578" y="275" type="curve" smooth="yes"/>
      <point x="511" y="275"/>
      <point x="470" y="309"/>
      <point x="470" y="391" type="curve" smooth="yes"/>
      <point x="470" y="800" type="line"/>
      <point x="72" y="800" type="line"/>
      <point x="72" y="406" type="line" smooth="yes"/>
      <point x="72" y="125"/>
      <point x="255" y="-10"/>
    </contour>
  </outline>
</glyph>
<glyph name="V" format="2">
  <advance width="1146"/>
  <unicode hex="0056"/>
  <outline>
    <contour>
      <point x="1129" y="800" type="line"/>
      <point x="823" y="800" type="line"/>
      <point x="567" y="0" type="line"/>
      <point x="829" y="0" type="line"/>
    </contour>
    <contour>
      <point x="448" y="800" type="line"/>
      <point x="17" y="800" type="line"/>
      <point x="311" y="0" type="line"/>
      <point x="722" y="0" type="line"/>
    </contour>
    <contour>
      <point x="784" y="260" type="line"/>
      <point x="409" y="260" type="line"/>
      <point x="409" y="0" type="line"/>
      <point x="784" y="0" type="line"/>
    </contour>
  </outline>
</glyph>
<glyph name="W" format="2">
  <advance width="1224"/>
  <unicode hex="0057"/>
  <outline>
    <contour>
      <point x="1207" y="800" type="line"/>
      <point x="865" y="800" type="line"/>
      <point x="799" y="270" type="line"/>
      <point x="828" y="270" type="line"/>
      <point x="760" y="800" type="line"/>
      <point x="506" y="800" type="line"/>
      <point x="445" y="270" type="line"/>
      <point x="474" y="270" type="line"/>
      <point x="407" y="800" type="line"/>
      <point x="17" y="800" type="line"/>
      <point x="157" y="0" type="line"/>
      <point x="553" y="0" type="line"/>
      <point x="615" y="451" type="line"/>
      <point x="558" y="451" type="line"/>
      <point x="636" y="0" type="line"/>
      <point x="1072" y="0" type="line"/>
    </contour>
  </outline>
</glyph>
<glyph name="X" format="2">
  <advance width="1121"/>
  <unicode hex="0058"/>
  <outline>
    <contour>
      <point x="647" y="0" type="line"/>
      <point x="1104" y="0" type="line"/>
      <point x="717" y="477" type="line"/>
      <point x="474" y="800" type="line"/>
      <point x="17" y="800" type="line"/>
      <point x="389" y="367" type="line"/>
    </contour>
    <contour>
      <point x="17" y="0" type="line"/>
      <point x="401" y="0" type="line"/>
      <point x="569" y="318" type="line"/>
      <point x="727" y="328" type="line"/>
      <point x="1104" y="800" type="line"/>
      <point x="720" y="800" type="line"/>
      <point x="537" y="498" type="line"/>
      <point x="374" y="483" type="line"/>
    </contour>
  </outline>
</glyph>
<glyph name="Y" format="2">
  <advance width="1069"/>
  <unicode hex="0059"/>
  <outline>
    <contour>
      <point x="1052" y="800" type="line"/>
      <point x="738" y="800" type="line"/>
      <point x="473" y="207" type="line"/>
      <point x="730" y="207" type="line"/>
    </contour>
    <contour>
      <point x="423" y="800" type="line"/>
      <point x="17" y="800" type="line"/>
      <point x="340" y="207" type="line"/>
      <point x="700" y="207" type="line"/>
    </contour>
    <contour>
      <point x="730" y="347" type="line"/>
      <point x="340" y="347" type="line"/>
      <point x="340" y="0" type="line"/>
      <point x="730" y="0" type="line"/>
    </contour>
  </outline>
</glyph>
<glyph name="Z" format="2">
  <advance width="1088"/>
  <unicode hex="005A"/>
  <outline>
    <contour>
      <point x="51" y="271" type="line"/>
      <point x="520" y="195" type="line"/>
      <point x="1037" y="529" type="line"/>
      <point x="568" y="605" type="line"/>
    </contour>
    <contour>
      <point x="51" y="529" type="line"/>
      <point x="1037" y="529" type="line"/>
      <point x="1037" y="800" type="line"/>
      <point x="51" y="800" type="line"/>
    </contour>
    <contour>
      <point x="51" y="0" type="line"/>
      <point x="1037" y="0" type="line"/>
      <point x="1037" y="271" type="line"/>
      <point x="51" y="271" type="line"/>
    </contour>
  </outline>
</glyph>
